# xmcd
#
# Track frame offsets: 
#        187
#        16012
#        32680
#        50175
#        65337
#        81887
#        94017
#        108812
#        125740
#        139612
#
# Disc length: 2121 seconds
#
# Revision: 1
# Processed by: cddbd v1.5.1PL0 Copyright (c) Steve Scherf et al.
# Submitted via: ExactAudioCopy v0.90b4
#
DISCID=7d08470a
DTITLE=Kenny Rogers and Dolly Parton - Once Upon a Christmas
DYEAR=1984
DGENRE=Country
TTITLE0=I Believe In Santa Claus
TTITLE1=Winter Wonderland - Sleigh Ride
TTITLE2=Christmas Without You
TTITLE3=The Christmas Song
TTITLE4=A Christmas To Remember
TTITLE5=With Bells On
TTITLE6=Silent Night
TTITLE7=The Greatest Gift Of All
TTITLE8=White Christmas
TTITLE9=Once Upon A Christmas
EXTD=
EXTT0=
EXTT1=
EXTT2=
EXTT3=
EXTT4=
EXTT5=
EXTT6=
EXTT7=
EXTT8=
EXTT9=
PLAYORDER=
